<svg xmlns="http://www.w3.org/2000/svg" width="1925.255" height="460.643" viewBox="0 0 1925.255 460.643">
  <defs>
    <style>
      .cls-1 {
        fill: #02c1c9;
      }
    </style>
  </defs>
  <g id="グループ_13" data-name="グループ 13" transform="translate(1.624 -4502.046)">
    <path id="パス_10" data-name="パス 10" class="cls-1" d="M854.436,336.509H606.151a6.534,6.534,0,0,1-1.647,3.05l-55.567,60.752a31.927,31.927,0,0,1-23.362,10.308H163.083c.138-.545.155-242.9,0-242.459H322.642a23.516,23.516,0,0,1,17.445,7.686l33.487,36.6H753.518a47.156,47.156,0,0,1,34.89,15.371L863.53,309.9C881.06,330.5,863.829,336.509,854.436,336.509Z" transform="translate(-164.708 4552.069)"/>
    <path id="パス_9" data-name="パス 9" class="cls-1" d="M1089.736,291.489H837.486a37.2,37.2,0,0,1-27.018-11.427l-21.949-23.033H567.458a24.408,24.408,0,0,1-17.651-7.48L507.888,205.59l-85.695-1.413c-21.3-.217-32.4-11.1-15.475-29.427L478.18,99.774a48.741,48.741,0,0,1,35.334-14.93H643.227l31.346-32.887A48.821,48.821,0,0,1,709.907,37h379.829C1089.882,37.238,1090.5,291.674,1089.736,291.489Z" transform="translate(833.52 4465.049)"/>
  </g>
</svg>
