<svg xmlns="http://www.w3.org/2000/svg" xmlns:xlink="http://www.w3.org/1999/xlink" width="1869.206" height="1810.834" viewBox="0 0 1869.206 1810.834"><defs><filter id="a" x="0" y="454.834" width="1869.206" height="1351.896" filterUnits="userSpaceOnUse"><feOffset dy="-3" input="SourceAlpha"/><feGaussianBlur stdDeviation="5" result="b"/><feFlood flood-opacity="0.204"/><feComposite operator="in" in2="b"/><feComposite in="SourceGraphic"/></filter></defs><g transform="translate(-68.186 -2751.166)"><path d="M71.311,3502.84c332.671-36.333,812.606-74.784,1098.9-124.862s452.806-144.27,551.984-230.353,189.89-230.555,189.89-230.555v50.785s-167.546,232.15-306.076,311.283-361.241,164.751-508.052,210.711-372.948,76.877-556.444,135.1-470.2,131.181-470.2,131.181Z" transform="translate(11.876 -165.905)" fill="#aad8d3"/><g transform="matrix(1, 0, 0, 1, 68.19, 2751.17)" filter="url(#a)"><path d="M25.163,3677.264,289.537,3493.7l450.938,241.222,147.033-122.19,302.09,163.439,356.147-390.191L1864.368,3551.4V4707.873H25.163Z" transform="translate(-10.16 -2913.14)" fill="#fff"/></g><rect width="1841" height="39" transform="translate(83 4523)" fill="#fff"/></g></svg>