<?xml version="1.0" encoding="utf-8"?>
<!-- Generator: Adobe Illustrator 25.3.1, SVG Export Plug-In . SVG Version: 6.00 Build 0)  -->
<svg version="1.1" id="レイヤー_1" xmlns="http://www.w3.org/2000/svg" xmlns:xlink="http://www.w3.org/1999/xlink" x="0px"
	 y="0px" viewBox="0 0 2015.8 1084.7" style="enable-background:new 0 0 2015.8 1084.7;" xml:space="preserve">
<style type="text/css">
	.st0{fill:#AAD8D3;}
</style>
<g id="グループ_19" transform="translate(61.685 34.503)">
	<path id="パス_12" class="st0" d="M1542.2,666.3c-55.8,17.8,5.8-19.1-123.7,15c-129.5,34.1-215.6,25.2-295.1,126
		c-79.5,100.8-60.3,104-65.5,140.4c-5.2,36.4,134.5,102.1,134.5,102.1l-226.7,0c0,0-0.2,0.7-3.9,0c-68-13.3-53.2-76.7-53.2-76.7
		s8.1-44.7,45.4-100.5c55.2-82.7,159-169.4,169.4-174.7c36-18.3,62.6,32.7,258.5-55.8s87.1-85.3,133.3-139.8
		c46.2-54.5-10.9-119.3,45.3-167.4s393.6-72.4,393.6-72.4l0,302.4c0,0-260.4,4.7-323.5,24.1C1567.5,608.3,1598.1,648.5,1542.2,666.3
		z"/>
	<path id="パス_4" class="st0" d="M-51.3,477.7c130.7-65.5,148.2-33.4,241-106.3c83.9-86.1,50.5-120.7,234.8-221.2
		S834.5,82,884,25.1c31.3-36,50.6-59.6,50.6-59.6l235.4,0c0,0,35.5-9.1-185,90.9c-46.2,21-18.4,34.1-124.3,64.9
		c-90.9,9-195.1-45.9-359.5,37.8c-65.1,33.2-114.1,91.3-172.7,135.8C204,434.8,186.2,461.8,142.4,482.6C3.4,548.5-61.7,553-61.7,553
		l0-71.6C-61.7,481.4-52.7,478.4-51.3,477.7z"/>
</g>
</svg>
