<svg xmlns="http://www.w3.org/2000/svg" width="1322" height="675.5" viewBox="0 0 1322 675.5">
  <g id="グループ_14" data-name="グループ 14" transform="translate(-295 -5892)">
    <text id="_2021" data-name="2021" transform="translate(324 5941) rotate(90)" fill="#393e46" font-size="90" font-family="TransatBoldOblique, Transat" letter-spacing="0.1em"><tspan x="0" y="0">2021</tspan></text>
    <text id="_9" data-name="9" transform="translate(435 6037)" fill="#393e46" font-size="120" font-family="TransatBoldOblique, Transat" letter-spacing="0.1em"><tspan x="0" y="0">9</tspan></text>
    <path id="線_3" data-name="線 3" d="M0,221.5a1.5,1.5,0,0,1-.54-.1,1.5,1.5,0,0,1-.859-1.94l85-220a1.5,1.5,0,0,1,1.94-.859A1.5,1.5,0,0,1,86.4.541l-85,220A1.5,1.5,0,0,1,0,221.5Z" transform="translate(484.5 5931.5)" fill="#393e46"/>
    <text id="_18" data-name="18" transform="translate(569 6157)" fill="#393e46" font-size="120" font-family="TransatBoldOblique, Transat" letter-spacing="0.1em"><tspan x="0" y="0">18</tspan></text>
    <path id="多角形_1" data-name="多角形 1" d="M26.9,4.489a3,3,0,0,1,5.194,0L56.4,46.5A3,3,0,0,1,53.8,51H5.2a3,3,0,0,1-2.6-4.5Z" transform="translate(822 6055) rotate(90)" fill="#02c1c9"/>
    <text id="_20" data-name="20" transform="translate(880 6156)" fill="#393e46" font-size="120" font-family="TransatBoldOblique, Transat" letter-spacing="0.08em"><tspan x="0" y="0">20</tspan></text>
    <text id="SAT" transform="translate(594 6053)" fill="#393e46" font-size="59" font-family="TransatBoldOblique, Transat"><tspan x="0" y="0">SAT</tspan></text>
    <text id="MON" transform="translate(896 6054)" fill="#393e46" font-size="59" font-family="TransatBoldOblique, Transat"><tspan x="0" y="0">MON</tspan></text>
    <text id="_9:30_16:30_" data-name="9:30~16:30 " transform="translate(1083 6110)" fill="#393e46" font-size="90" font-family="TransatBoldOblique, Transat" letter-spacing="0.1em"><tspan x="0" y="0">9:30~16:30 </tspan></text>
    <text id="Day1_Day3" data-name="Day1 ~ Day3" transform="translate(1083 6030)" fill="#02c1c9" font-size="26" font-family="TransatBoldOblique, Transat" letter-spacing="0.1em"><tspan x="0" y="0">Day1 ~ Day3</tspan></text>
    <text id="_グランドフィナーレを除く_ターム制で案内いたします_" data-name="＊グランドフィナーレを除く。
　ターム制で案内いたします。" transform="translate(1386 6148)" fill="#393e46" font-size="15" font-family="HiraginoSans-W6, Hiragino Sans" letter-spacing="0.1em"><tspan x="0" y="0">＊グランドフィナーレを除く。</tspan><tspan y="0" font-family="TransatBoldOblique, Transat"></tspan><tspan x="0" y="20">　ターム制で案内いたします。</tspan></text>
    <text id="聖光学院中学校_高等学校" data-name="聖光学院中学校・高等学校" transform="translate(321 6383)" fill="#393e46" font-size="50" font-family="HiraginoSans-W6, Hiragino Sans" letter-spacing="0.1em"><tspan x="0" y="0">聖光学院中学校・高等学校</tspan></text>
    <text id="_220-0024_横浜市中区滝之上100番地_交通公共機関をご利用ください_" data-name="〒220-0024
横浜市中区滝之上100番地
交通公共機関をご利用ください。" transform="translate(321 6437)" fill="#7a7e83" font-size="30" font-family="HiraginoSans-W6, Hiragino Sans" letter-spacing="0.1em"><tspan x="0" y="0">〒</tspan><tspan y="0" font-family="TransatBold, Transat">220-0024</tspan><tspan x="0" y="40">横浜市中区滝之上</tspan><tspan y="40" font-family="TransatBold, Transat">100</tspan><tspan y="40">番地</tspan><tspan y="40" font-family="TransatBold, Transat"></tspan><tspan x="0" y="80">交通公共機関をご利用ください。</tspan></text>
    <text id="JR線山手駅より" transform="translate(1154 6382)" fill="#393e46" font-size="50" font-family="TransatBold, Transat" letter-spacing="0.1em"><tspan x="0" y="0">JR</tspan><tspan y="0" font-family="HiraginoSans-W6, Hiragino Sans">線山手駅より</tspan></text>
    <text id="DATE_TIME" data-name="DATE &amp; TIME" transform="translate(295 5916)" fill="#02c1c9" font-size="30" font-family="TransatBold, Transat" letter-spacing="0.1em"><tspan x="0" y="0">DATE &amp; TIME</tspan></text>
    <text id="PLACE" transform="translate(299 6314)" fill="#02c1c9" font-size="30" font-family="TransatBold, Transat" letter-spacing="0.1em"><tspan x="0" y="0">PLACE</tspan></text>
    <text id="ACCESS" transform="translate(1134 6313)" fill="#02c1c9" font-size="30" font-family="TransatBold, Transat" letter-spacing="0.1em"><tspan x="0" y="0">ACCESS</tspan></text>
    <text id="_10分" data-name="10分" transform="translate(1154 6430)" fill="#7a7e83" font-size="30" font-family="TransatBold, Transat" letter-spacing="0.1em"><tspan x="0" y="0">10</tspan><tspan y="0" font-family="HiraginoSans-W6, Hiragino Sans">分</tspan></text>
    <text id="JR線根岸駅より" transform="translate(1154 6499)" fill="#393e46" font-size="50" font-family="TransatBold, Transat" letter-spacing="0.1em"><tspan x="0" y="0">JR</tspan><tspan y="0" font-family="HiraginoSans-W6, Hiragino Sans">線根岸駅より</tspan></text>
    <text id="_18分" data-name="18分" transform="translate(1154 6547)" fill="#7a7e83" font-size="30" font-family="TransatBold, Transat" letter-spacing="0.1em"><tspan x="0" y="0">18</tspan><tspan y="0" font-family="HiraginoSans-W6, Hiragino Sans">分</tspan></text>
    <path id="線_4" data-name="線 4" d="M0,276.5A1.5,1.5,0,0,1-1.5,275V0A1.5,1.5,0,0,1,0-1.5,1.5,1.5,0,0,1,1.5,0V275A1.5,1.5,0,0,1,0,276.5Z" transform="translate(1052 6291)" fill="#393e46"/>
  </g>
</svg>
