<svg xmlns="http://www.w3.org/2000/svg" width="2071.164" height="1287.311" viewBox="0 0 2071.164 1287.311">
  <g id="グループ_19" data-name="グループ 19" transform="translate(61.685 34.503)">
    <path id="パス_12" data-name="パス 12" d="M274.37-1.406c53.408,24.09-17.1,10.347,101.933,71.658S553.385,195.809,679.939,174.061s114.433-36.933,142.62-60.54S790.952-52.314,790.952-52.314L959.423,99.379s.662-.368,2.914,2.624c41.694,55.392-11.8,92.623-11.8,92.623s-35.959,27.772-101.043,44.3c-96.377,24.474-231.53,19.5-242.794,16.482-38.984-10.435-24.644-66.145-229.429-131.489s-121.8,5.088-192.579,14.693-71.715,95.937-145.72,94.111S-171.1,116.087-171.1,116.087L34.953-112.762S97.013-30.828,156.867-2.989,220.963-25.5,274.37-1.406Z" transform="translate(1806.872 514.443) rotate(138)" fill="#aad8d3"/>
    <path id="パス_4" data-name="パス 4" d="M598.939,3476.149c138.55-46.692,151.4-12.451,253.426-71.706,95.1-73.552,66.78-112.525,263.318-186.328s415.522-10.55,472.451-59.961c36-31.248,58.4-51.979,58.4-51.979l233.12,32.763s36.372-4.078-195.822,64.229c-48.683,14.322-22.951,31.239-132.086,46.964-91.3-3.708-186.807-72.64-361.284-12.584-69.093,23.782-125.743,74.572-189.969,110.465C857.786,3469.2,836.432,3493.49,790.145,3507.981c-146.811,45.96-211.927,41.342-211.927,41.342l9.971-70.949S597.493,3476.636,598.939,3476.149Z" transform="translate(-1066.572 -2848.565) rotate(-8)" fill="#aad8d3"/>
  </g>
</svg>
